<svg xmlns="http://www.w3.org/2000/svg" viewBox="0 0 889.02 270"><defs><style>.cls-1{fill:#fff;}</style></defs><title>alwaysat-logo-invert</title><g id="Layer_2" data-name="Layer 2"><g id="Layer_1-2" data-name="Layer 1"><path class="cls-1" d="M79.77,43.11H98.49v92.31H80.14l-.94-15c-6.18,11.8-20.4,17.42-31.83,17.42C20.41,138,0,120.63,0,89.17,0,58.28,21.16,41.05,47.75,41.05c13.1,0,25.65,6.18,31.45,16.66ZM19.29,89.17c0,19.1,13.48,30.71,30,30.71,39.89,0,39.89-61.23,0-61.23C32.77,58.65,19.29,70.26,19.29,89.17Z"/><path class="cls-1" d="M144.74,4.54V135.42H125.45V4.54Z"/><path class="cls-1" d="M246.41,42.92l22.09,72.65,22.85-72.65h21.53L280.49,135.8H258l-10.86-30.71-9-32.21L229,105.09,218.14,135.8H195.67L163.09,42.92h21.72l22.84,72.65,22.1-72.65Z"/><path class="cls-1" d="M401.82,43.11h18.73v92.31H402.2l-.94-15c-6.18,11.8-20.41,17.42-31.83,17.42-27,.18-47.37-17.23-47.37-48.69,0-30.89,21.16-48.12,47.74-48.12,13.11,0,25.66,6.18,31.46,16.66ZM341.34,89.17c0,19.1,13.48,30.71,30,30.71,39.89,0,39.89-61.23,0-61.23C354.82,58.65,341.34,70.26,341.34,89.17Z"/><path class="cls-1" d="M535.14,43.11,476.9,178.3H455.56l19.1-44.19-36.89-91h22.47l15.92,43.63L485.33,113l9.93-25.84,18.34-44Z"/><path class="cls-1" d="M607.6,65.77c-7.3-6.74-15.16-8.62-24.34-8.62C571.46,57,563.6,60.9,563.6,68.2c.19,7.68,8.24,10.68,20,11.8,17,1.5,39.32,5.24,39.13,29-.19,17.23-15.35,29.21-39.32,29.21-15,0-30-3.37-42.13-17l10.11-13.67c8.62,9.55,21.54,13.48,32.39,13.67,9.18,0,19.48-3.37,19.67-12,.18-8.24-7.68-11.42-21.35-12.73-17.41-1.69-37.45-7.31-37.64-27.72,0-20.41,21.16-28.08,38.39-28.08,14.23,0,25.28,3.18,35.58,12.35Z"/><path class="cls-1" d="M858.22,15.44v27h27.21V59.28H858v44.4c0,9.82,4.35,15.3,13.42,15.3a28.07,28.07,0,0,0,11.9-3.21L889,132.4a44.16,44.16,0,0,1-18.71,4.16c-20.21.56-31.74-11-31.74-32.88V59.28h-18V42.46h18V17.52Z"/><path class="cls-1" d="M670.26,77.42h20.89a29.43,29.43,0,0,1,18-18.25V39.72C689.76,43.7,674.63,57.86,670.26,77.42Z"/><path class="cls-1" d="M769.4,45.85l-16.41-2L751.78,56C748,49,740.44,43.4,732.05,40.56V58.84a27.41,27.41,0,0,1,18.32,18.58h19Z"/><path class="cls-1" d="M709.13,138V118.59a29.62,29.62,0,0,1-18-18.24h-21C674.36,119.76,689.47,134,709.13,138Z"/><path class="cls-1" d="M732.05,25.06c31.58,2.68,51.86,18.22,55.07,52.36H805c-3.85-43.14-33.11-66.4-73-69.8Z"/><path class="cls-1" d="M657.25,77.42C661.69,48.65,683,30.1,709.13,25.64V8c-36.2,4.7-65.72,29.91-70.48,69.46Z"/><path class="cls-1" d="M735.77,84.59l-.34-1A15.69,15.69,0,0,0,725.84,74l-1-.34V0h-8.6V73.7l-.95.34a15.67,15.67,0,0,0-9.59,9.59l-.34,1H630.79v8.59h74.62l.34,1a15.67,15.67,0,0,0,9.59,9.59l.95.34v70.87h8.6V104.07l1-.34a15.69,15.69,0,0,0,9.59-9.59l.34-1H812.6V84.59ZM720.59,96.28a7.4,7.4,0,1,1,7.39-7.4A7.4,7.4,0,0,1,720.59,96.28Z"/><path class="cls-1" d="M804.59,100.35a62.77,62.77,0,0,1-4.23,16,40.16,40.16,0,0,1-6.56,10.76c-5.55,6.39-13.1,10.24-22.67,10.93a33.48,33.48,0,0,1-3.35.14c-7.29,0-15.18-5.46-15.18-17.61-3.82,8.45-12.24,13.94-20.56,16.66V118.8a28.29,28.29,0,0,0,18-18.45H769.4v16.4c0,3.24,1.41,4.86,3.23,4.86a10.14,10.14,0,0,0,7.9-3.88,16.72,16.72,0,0,0,1.82-2.63,20.62,20.62,0,0,0,1.5-3.09l.06-.09a49.41,49.41,0,0,0,2.89-11.57Z"/><path class="cls-1" d="M788.26,141.48a42.41,42.41,0,0,1-16.55,4.58,39.11,39.11,0,0,1-3.93.16A22.84,22.84,0,0,1,756,142.9a70,70,0,0,1-23.33,7.28V182.1H709.13V156h0v-5.84c-25.21-3.41-47.6-18.4-52-49.83H638.64a78.15,78.15,0,0,0,8.81,28.51l.22.45.08.16,0,.05,65,135.53a8.63,8.63,0,0,0,7.78,4.95h0a8.71,8.71,0,0,0,7.8-4.89l35.9-73.52-.06,0Z"/></g></g></svg>